<svg width="40" height="40" fill="none" xmlns="http://www.w3.org/2000/svg"><path d="M9.375 18.438a4.062 4.062 0 100 8.124 4.062 4.062 0 000-8.125zm0 5.937a1.875 1.875 0 110-3.75 1.875 1.875 0 010 3.75zm22.5-5.937a4.063 4.063 0 100 8.125 4.063 4.063 0 000-8.125zm0 5.937a1.875 1.875 0 110-3.75 1.875 1.875 0 010 3.75z" fill="#006CB6"/><path d="M37.297 15.081L30 13.75l-6.212-5.154a3.446 3.446 0 00-2.184-.783h-9.152a3.421 3.421 0 00-2.685 1.29L5.8 13.75H3.125a2.815 2.815 0 00-2.813 2.813V20a3.441 3.441 0 003.438 3.438h.714a5 5 0 119.822 0h12.679a5 5 0 119.82 0h.09a2.815 2.815 0 002.813-2.813v-2.763a2.796 2.796 0 00-2.391-2.78zm-23.234-2.268a.937.937 0 01-.938.937H9.004a.468.468 0 01-.357-.773l2.728-3.196a.938.938 0 01.713-.328h1.037a.938.938 0 01.938.938v2.421zm4.687 4.374H17.5a.938.938 0 010-1.875h1.25a.938.938 0 010 1.876zm7.381-3.414l-8.946-.02a.938.938 0 01-.935-.938V10.39a.938.938 0 01.938-.938h4.495c.211 0 .416.071.581.202l4.159 3.28a.47.47 0 01-.292.838z" fill="#006CB6"/></svg>