<svg width="30" height="30" fill="none" xmlns="http://www.w3.org/2000/svg"><g clip-path="url(#clip0)" fill="#006CB6"><path d="M10.545 16.025h-.525a.879.879 0 000 1.758h9.96a.879.879 0 000-1.758h-.525a4.553 4.553 0 00-3.576-3.575v1.378a.879.879 0 01-1.758 0V12.45a4.553 4.553 0 00-3.576 3.575zm8.985 7.578a5.706 5.706 0 01-9.06 0 6.734 6.734 0 00-2.794 5.46c0 .485.393.879.879.879h12.89a.879.879 0 00.88-.88 6.734 6.734 0 00-2.795-5.459z"/><path d="M15 24.082a3.955 3.955 0 003.955-3.955v-.586h-7.91v.586A3.955 3.955 0 0015 24.082zm.879-11.632v-.38a.879.879 0 00-1.758 0v.38a4.546 4.546 0 011.758 0zm1.816-5.8h9.961a.879.879 0 000-1.757h-.526a4.554 4.554 0 00-3.575-3.576v1.378a.879.879 0 01-1.758 0V1.317a4.554 4.554 0 00-3.576 3.576h-.526a.879.879 0 000 1.757zm4.981 6.3a3.955 3.955 0 003.955-3.956v-.586h-7.91v.586a3.955 3.955 0 003.955 3.955zm4.6-.573a5.708 5.708 0 01-6.506 2.003l.005.01a2.642 2.642 0 011.842 2.514 2.64 2.64 0 01-1.907 2.534c.002.034.003.068.003.103v.586c0 .68-.12 1.33-.338 1.936.064.035.126.073.187.117a8.505 8.505 0 011.9 1.902h6.66a.879.879 0 00.878-.879v-5.566a6.442 6.442 0 00-2.724-5.26zm-3.721-11.06v-.38a.879.879 0 00-1.758 0v.38a4.545 4.545 0 011.758 0zM2.344 6.65h9.96a.879.879 0 000-1.757h-.525a4.554 4.554 0 00-3.576-3.576v1.378a.879.879 0 01-1.758 0V1.317A4.554 4.554 0 002.87 4.893h-.526a.879.879 0 000 1.757zm8.936 2.344v-.586H3.37v.586a3.955 3.955 0 107.91 0zM9.438 22.18c.06-.044.123-.082.187-.117a5.686 5.686 0 01-.338-1.936v-.586c0-.035.001-.07.003-.103a2.64 2.64 0 01-1.907-2.534 2.64 2.64 0 011.842-2.514l.005-.01a5.708 5.708 0 01-6.506-2.003A6.442 6.442 0 000 17.637v5.566c0 .486.394.879.879.879h6.66a8.506 8.506 0 011.9-1.903zM8.203 1.317v-.38a.879.879 0 00-1.758 0v.38a4.546 4.546 0 011.758 0z"/></g><defs><clipPath id="clip0"><path fill="#fff" d="M0 0h30v30H0z"/></clipPath></defs></svg>