<svg width="40" height="40" fill="none" xmlns="http://www.w3.org/2000/svg"><path d="M12.338 8.98H24.68a.587.587 0 000-1.174H12.338a.587.587 0 100 1.175zM1.3 14.722h12.342a.587.587 0 100-1.174H1.3a.587.587 0 100 1.174zm3.313 6.041c0 .324.263.587.587.587h12.342a.587.587 0 000-1.174H5.2a.587.587 0 00-.587.587zm7.063 6.825H.587a.587.587 0 100 1.174h11.09a.587.587 0 000-1.174zM31.63 12.662a3.207 3.207 0 10-.001-6.415 3.207 3.207 0 000 6.415z" fill="#006CB6"/><path d="M36.905 11.739c-1.842 2.58-4.308 2.878-6.961 1.302-.18-.107-.982-.548-1.16-.654-4.269-2.534-8.533-1.54-11.392 2.464-1.215 1.704 1.595 3.318 2.797 1.635 1.477-2.07 3.356-2.668 5.41-2.013-1.052 1.826-1.971 3.641-3.27 6.22-1.298 2.579-4.164 4.638-6.918 3.028-1.987-1.162-3.78 1.693-1.798 2.85 3.76 2.198 8.169.849 10.42-2.008.077.042.16.08.25.111 1.839.641 4.249 2.346 4.983 2.95.735.605 1.996 3.684 2.745 5.231.909 1.878 3.843.51 2.931-1.375-.849-1.755-2.274-5.258-3.386-6.145-.891-.71-2.623-2.033-4.091-2.784a128.422 128.422 0 013.117-5.698c3.47 1.063 6.77-.19 9.12-3.48 1.215-1.704-1.595-3.318-2.797-1.634z" fill="#006CB6"/></svg>