<svg width="32" height="32" fill="none" xmlns="http://www.w3.org/2000/svg"><path d="M0 2.667h1.333v12h8v-12h1.334V0H0v2.667zm29.333 0V4h-2.666a9.333 9.333 0 00-9.334 9.333v1.334h8v-1.334c0-.736.597-1.333 1.334-1.333h2.666v1.333H32V2.667h-2.667zM16 18.667h1.333v2.666c0 .737-.597 1.334-1.333 1.334v8a9.333 9.333 0 009.333-9.334v-2.666h1.334V16H16v2.667zm-1.333 2.666H12V32h2.667V21.333zM0 18.667h1.333v2.666a9.333 9.333 0 009.334 9.334v-8a1.333 1.333 0 01-1.334-1.334v-2.666h1.334V16H0v2.667z" fill="#006CB6"/></svg>