<svg width="18" height="19" fill="none" xmlns="http://www.w3.org/2000/svg"><path d="M17.954 5.293c-.042-.957-.197-1.614-.418-2.184a4.393 4.393 0 00-1.041-1.597A4.43 4.43 0 0014.9.475c-.573-.222-1.227-.376-2.184-.419C11.755.011 11.447 0 9.005 0c-2.445 0-2.75.01-3.71.053-.96.042-1.617.197-2.187.417a4.393 4.393 0 00-1.597 1.041c-.457.45-.812.996-1.037 1.594C.253 3.679.099 4.333.056 5.29.011 6.253 0 6.56 0 9.004s.01 2.75.053 3.71c.042.957.197 1.614.418 2.184a4.44 4.44 0 001.041 1.597c.45.457.996.812 1.594 1.037.573.222 1.227.377 2.184.419.96.042 1.266.052 3.71.052s2.75-.01 3.71-.052c.957-.043 1.615-.197 2.184-.419a4.605 4.605 0 002.635-2.634c.221-.573.376-1.227.418-2.184.042-.96.053-1.266.053-3.71 0-2.445-.004-2.75-.046-3.71zm-1.621 7.35c-.039.88-.186 1.355-.31 1.671a2.986 2.986 0 01-1.709 1.71c-.316.123-.795.27-1.67.309-.95.042-1.235.053-3.637.053s-2.69-.01-3.637-.053c-.879-.039-1.354-.186-1.67-.31a2.771 2.771 0 01-1.034-.671 2.798 2.798 0 01-.672-1.034c-.123-.317-.27-.795-.31-1.67-.042-.95-.052-1.235-.052-3.637 0-2.403.01-2.691.053-3.637.038-.88.186-1.354.31-1.67.143-.391.372-.746.674-1.035a2.795 2.795 0 011.034-.671c.317-.123.795-.271 1.671-.31.95-.042 1.235-.053 3.637-.053 2.405 0 2.69.011 3.636.053.88.039 1.354.187 1.67.31.391.144.746.372 1.035.671a2.8 2.8 0 01.671 1.034c.124.317.271.795.31 1.671.042.95.053 1.234.053 3.637 0 2.402-.01 2.683-.053 3.633z" fill="#fff"/><path d="M9.004 4.379a4.626 4.626 0 000 9.25 4.626 4.626 0 000-9.25zm0 7.625a3 3 0 110-6.001 3 3 0 010 6zm5.887-7.808a1.08 1.08 0 11-2.16 0 1.08 1.08 0 012.16 0z" fill="#fff"/></svg>