<svg width="80" height="60" fill="none" xmlns="http://www.w3.org/2000/svg"><g clip-path="url(#clip0)" fill="#fff"><path fill-rule="evenodd" clip-rule="evenodd" d="M68.587 11.741a108.042 108.042 0 01-.558 3.582c4.717-3.914 8.827-7.968 11.98-11.907a30.784 30.784 0 01-1.731 2.969c-2.604 3.996-6.372 8.192-10.889 12.305-5.041 23.797-17.702 35.074-32.576 41.327-6.673-2.807-12.901-6.627-18.2-12.132.698-.15.841-.122.96-.098.267.052.405.08 6.46-2.016 8.742-3.018 30.529-15.133 42.225-26.095-11.63 10.282-27.818 19.91-42.217 24.462-3.261 1.036-6.23 1.74-8.893 2.147.466.53.94 1.043 1.415 1.548a47.576 47.576 0 01-1.406-1.531c-14.134 2.156-19.35-4.246-11.48-16.319.15-.232.308-.464.466-.696-1.456 5.331.99 9.212 6.147 10.423-4.4-7.107-7.653-16.203-9.267-27.969 20.639-15.647 46.925-15.647 67.564 0zm-20.664 17.23l.15-.082a134.435 134.435 0 0015.465-10.025h-24v1.21H27.726v-1.21h-3.427v1.293h.99v2.198H14.665v-2.198h.99v-9.386h12.062V9.618h4.458v-1.02h-3.968a.932.932 0 01-.665.29h-2.23a.922.922 0 01-.915-.911v-.523c0-.506.416-.912.916-.912h2.229c.266 0 .499.116.665.29h3.985c.208-1.683 2.67-1.683 2.878 0h4.06a.887.887 0 01.665-.29h2.23c.507 0 .915.423.915.912v.523c0 .489-.425.903-.915.903h-2.23a.932.932 0 01-.665-.29h-4.05v1.028h4.458v1.153h22.278C43.639-.299 21.968.481 4.25 13.084c1.605 10.423 4.658 19.528 9.899 27.049h.541c.062 0 .122-.003.183-.005.06-.002.12-.004.183-.004l.174-.008h.017c.25-.008.5-.017.757-.033l.191-.008.192-.013.191-.012h.008l.167-.017h.033l.2-.017.023-.001c.118-.008.243-.016.368-.032h.008l.166-.016h.042l.208-.025h.025l.183-.017.183-.025h.025l.158-.016.05-.008.208-.025.208-.025h.008l.2-.025h.016l.208-.033.216-.033.175-.025.042-.009.083-.016.141-.025.15-.025.067-.008.216-.042.224-.041.075-.017.15-.025.142-.025.083-.016.216-.041h.008l.225-.042.233-.05.141-.025.092-.016.216-.042h.017l.233-.05.058-.008.175-.041.133-.033.1-.025.207-.05.025-.008.242-.058.183-.042.058-.016.125-.034.116-.024.208-.05.042-.008.24-.059.043-.008.207-.05.117-.033.125-.033h.016l.233-.058.25-.066.033-.008.216-.059.108-.033c.109-.029.217-.06.325-.09.108-.032.216-.063.324-.092l.017-.008.233-.067.1-.033.15-.041.183-.059.074-.024.258-.075h.009c.224-.066.449-.133.673-.207l.017-.008.083-.025.266-.083c.16-.055.318-.106.48-.158.108-.035.217-.07.327-.108l.158-.033c.155-.055.31-.107.467-.159l.315-.106.133-.042a80.164 80.164 0 00.716-.248l.133-.05c.241-.083.49-.174.74-.265l.242-.092a69.215 69.215 0 01.732-.273l.2-.075.581-.224.25-.1.749-.298.2-.083.648-.265.233-.1.329-.136.328-.137.291-.125.7-.298.24-.108.641-.282.175-.075.715-.323.325-.15.515-.24.474-.224.425-.199.39-.182.026-.008.565-.274.483-.232.2-.1c.15-.074.297-.149.444-.223.148-.075.296-.15.446-.224l.158-.083.507-.257.017-.008.565-.29.391-.208.3-.158a63.84 63.84 0 001.497-.796l.183-.1c.3-.157.599-.322.898-.488z"/><path d="M19.948 24.088l-4.11 4.096c-1.139 1.136-1.696 2.512-1.68 4.138.017 1.625.6 3.001 1.73 4.137 1.14 1.136 2.521 1.708 4.152 1.725 1.622.017 3.01-.547 4.15-1.683 2.288-2.28 2.213-5.987-.058-8.25l-4.184-4.163zm3.194 12.023c1.057-2.13 1.157-4.892.333-7.114 2.021 1.981 1.863 5.323-.333 7.114z"/></g><defs><clipPath id="clip0"><path fill="#fff" d="M0 0h80v60H0z"/></clipPath></defs></svg>