<svg width="14" height="14" fill="none" xmlns="http://www.w3.org/2000/svg"><g clip-path="url(#clip0)" fill="#00A0E8"><path d="M5.797 8.203C4.461 6.867 4.16 5.53 4.091 4.995a.48.48 0 01.138-.402l1.081-1.08a.483.483 0 00.068-.598L3.657.241A.483.483 0 003.03.065L.267 1.367a.48.48 0 00-.265.48C.147 3.223.746 6.605 4.07 9.929c3.324 3.324 6.706 3.924 8.082 4.068.2.02.391-.085.48-.265l1.302-2.764a.483.483 0 00-.175-.625l-2.674-1.72a.483.483 0 00-.597.067L9.407 9.77a.48.48 0 01-.402.138c-.535-.068-1.871-.37-3.208-1.706z"/><path d="M11.104 7.483A.483.483 0 0110.62 7 3.625 3.625 0 007 3.38a.483.483 0 010-.966A4.591 4.591 0 0111.586 7a.483.483 0 01-.482.483z"/><path d="M13.517 7.483A.483.483 0 0113.035 7 6.041 6.041 0 007 .966.483.483 0 117 0a7.008 7.008 0 017 7 .482.482 0 01-.483.483z"/></g><defs><clipPath id="clip0"><path fill="#fff" d="M0 0h14v14H0z"/></clipPath></defs></svg>